<svg width="109" height="109" viewBox="0 0 109 109" fill="none" xmlns="http://www.w3.org/2000/svg">
<path fill-rule="evenodd" clip-rule="evenodd" d="M54.5 0C24.3887 0 0 24.3887 0 54.5C0 78.6162 15.6006 98.9856 37.2644 106.207C39.9894 106.684 41.0112 105.049 41.0112 103.618C41.0112 102.324 40.9431 98.0319 40.9431 93.4675C27.25 95.9881 23.7075 90.1294 22.6175 87.0637C22.0044 85.4969 19.3475 80.66 17.0312 79.3656C15.1237 78.3438 12.3987 75.8231 16.9631 75.755C21.255 75.6869 24.3206 79.7062 25.3425 81.3412C30.2475 89.5844 38.0819 87.2681 41.2156 85.8375C41.6925 82.295 43.1231 79.9106 44.69 78.5481C32.5637 77.1856 19.8925 72.485 19.8925 51.6387C19.8925 45.7119 22.0044 40.8069 25.4788 36.9919C24.9338 35.6294 23.0262 30.0431 26.0237 22.5494C26.0237 22.5494 30.5881 21.1187 41.0112 28.1356C45.3712 26.9094 50.0037 26.2962 54.6362 26.2962C59.2687 26.2962 63.9012 26.9094 68.2612 28.1356C78.6844 21.0506 83.2487 22.5494 83.2487 22.5494C86.2462 30.0431 84.3388 35.6294 83.7937 36.9919C87.2681 40.8069 89.38 45.6437 89.38 51.6387C89.38 72.5531 76.6406 77.1856 64.5144 78.5481C66.49 80.2513 68.1931 83.5212 68.1931 88.6306C68.1931 95.92 68.125 101.779 68.125 103.618C68.125 105.049 69.1469 106.752 71.8719 106.207C82.6909 102.554 92.0922 95.6006 98.7525 86.3251C105.413 77.0496 108.997 65.919 109 54.5C109 24.3887 84.6112 0 54.5 0Z" fill="#FFFEFE"/>
</svg>
