<svg width="126" height="126" viewBox="0 0 126 126" fill="none" xmlns="http://www.w3.org/2000/svg">
<path d="M62.4005 12.0566C58.2444 12.0763 54.2774 12.4297 50.7848 13.0479C40.4981 14.8651 38.6318 18.6687 38.6318 25.6843V34.9483H62.9389V38.0363H29.5086C22.4447 38.0363 16.2589 42.2819 14.3236 50.3616C12.091 59.6197 11.9926 65.3979 14.3236 75.0655C16.0512 82.2623 20.1777 87.3889 27.2425 87.3889H35.6009V76.2832C35.6009 68.2595 42.5417 61.1828 50.7858 61.1828H75.0654C81.8242 61.1828 87.2185 55.6172 87.2185 48.8309V25.6853C87.2185 19.0969 81.6608 14.1484 75.0654 13.0489C70.8878 12.3539 66.5555 12.0379 62.4005 12.0566ZM49.2551 19.5074C51.7653 19.5074 53.8167 21.5913 53.8167 24.1546C53.8167 26.7071 51.7663 28.7713 49.2551 28.7713C46.7351 28.7713 44.6945 26.7071 44.6945 24.1546C44.6935 21.5913 46.7351 19.5074 49.2551 19.5074Z" fill="url(#paint0_linear_102_199)"/>
<path d="M90.2495 38.0363V48.8309C90.2495 57.1981 83.1541 64.2413 75.0645 64.2413H50.7849C44.1345 64.2413 38.6318 69.934 38.6318 76.5942V99.7418C38.6318 106.328 44.3589 110.204 50.7849 112.093C58.4788 114.354 65.8577 114.763 75.0645 112.093C81.1834 110.32 87.2176 106.755 87.2176 99.7418V90.4769H62.939V87.3879H99.3727C106.437 87.3879 109.071 82.4611 111.528 75.0645C114.065 67.4504 113.956 60.1276 111.528 50.3606C109.781 43.3273 106.447 38.0353 99.3727 38.0353L90.2495 38.0363ZM76.5933 96.6528C79.1143 96.6528 81.1549 98.7171 81.1549 101.272C81.1549 103.833 79.1133 105.917 76.5933 105.917C74.0831 105.917 72.0327 103.833 72.0327 101.272C72.0327 98.7171 74.0831 96.6528 76.5933 96.6528Z" fill="url(#paint1_linear_102_199)"/>
<path opacity="0.444" d="M95.7885 117.728C95.7885 121.216 81.204 124.044 63.2146 124.044C45.2242 124.044 30.6396 121.216 30.6396 117.728C30.6396 114.24 45.2232 111.412 63.2146 111.412C81.204 111.412 95.7885 114.239 95.7885 117.728Z" fill="url(#paint2_radial_102_199)"/>
<defs>
<linearGradient id="paint0_linear_102_199" x1="10.1753" y1="14.9533" x2="66.2392" y2="62.7643" gradientUnits="userSpaceOnUse">
<stop stop-color="#5A9FD4"/>
<stop offset="1" stop-color="#306998"/>
</linearGradient>
<linearGradient id="paint1_linear_102_199" x1="87.3327" y1="92.4844" x2="67.2273" y2="64.2898" gradientUnits="userSpaceOnUse">
<stop stop-color="#FFD43B"/>
<stop offset="1" stop-color="#FFE873"/>
</linearGradient>
<radialGradient id="paint2_radial_102_199" cx="0" cy="0" r="1" gradientUnits="userSpaceOnUse" gradientTransform="translate(63.0829 117.547) rotate(-90) scale(6.31803 27.773)">
<stop stop-color="#B8B8B8" stop-opacity="0.498"/>
<stop offset="1" stop-color="#7F7F7F" stop-opacity="0"/>
</radialGradient>
</defs>
</svg>
