<svg width="106" height="106" viewBox="0 0 106 106" fill="none" xmlns="http://www.w3.org/2000/svg">
<g clip-path="url(#clip0_102_233)">
<path d="M96.4368 5.50104C94.9523 9.06254 93.0518 12.436 90.7749 15.5512C80.7993 5.58128 67.2734 -0.0200155 53.1698 -0.0217285C24.0024 -0.0217285 4.92795e-08 24.0005 4.92795e-08 53.2002C-0.00031011 60.4107 1.46346 67.5462 4.30261 74.1743C7.14176 80.8023 11.2972 86.7849 16.517 91.7594L18.478 93.4984C28.0618 101.579 40.1919 106.014 52.7275 106.021C80.459 106.021 103.771 84.2913 105.745 56.5964C107.195 43.0391 103.218 25.892 96.4368 5.50104ZM24.0711 92.0625C23.6442 92.5885 23.1053 93.0126 22.4937 93.304C21.8822 93.5954 21.2133 93.7467 20.5358 93.7469C18.0366 93.7469 15.9919 91.6898 15.9919 89.1905C15.9919 86.6921 18.0498 84.635 20.5358 84.635C21.571 84.635 22.5937 84.9936 23.3945 85.6569C25.3415 87.2303 25.6454 90.1155 24.0711 92.0625ZM96.2165 76.131C83.0965 93.6227 55.0753 87.7272 37.1083 88.5694C37.1083 88.5694 33.9183 88.7632 30.7143 89.2874C30.7143 89.2874 31.9151 88.7765 33.4761 88.1827C46.0852 83.7928 52.051 82.9365 59.7153 79.0021C74.147 71.6575 88.4131 55.5877 91.3828 38.8687C85.8865 54.9525 69.2304 68.7723 54.0534 74.3911C43.6546 78.2295 24.8719 81.9569 24.8719 81.9569L24.1125 81.556C11.3246 75.3302 10.937 47.622 34.18 38.6757C44.3585 34.7546 54.0948 36.9085 65.0881 34.285C76.8268 31.4967 90.4023 22.6879 95.9259 11.2018C102.113 29.5779 109.558 58.3487 96.2165 76.131Z" fill="#77BC1F"/>
</g>
<defs>
<clipPath id="clip0_102_233">
<rect width="106" height="106" fill="white"/>
</clipPath>
</defs>
</svg>
